<mxfile host="app.diagrams.net" modified="2024-02-27T09:14:52.406Z" agent="Mozilla/5.0 (Windows NT 10.0; Win64; x64) AppleWebKit/537.36 (KHTML, like Gecko) Chrome/122.0.0.0 Safari/537.36" etag="yt766Cl0IId-PnwkRoWj" version="23.1.7" type="github">
  <diagram name="Page-1" id="WF8opbO4W5HsNm3-R-f4">
    <mxGraphModel dx="840" dy="418" grid="1" gridSize="10" guides="1" tooltips="1" connect="1" arrows="1" fold="1" page="1" pageScale="1" pageWidth="850" pageHeight="1100" math="0" shadow="0">
      <root>
        <mxCell id="0" />
        <mxCell id="1" parent="0" />
        <mxCell id="Te6tt9Ck92rcXe0SvWjM-3" value="" style="edgeStyle=orthogonalEdgeStyle;rounded=0;orthogonalLoop=1;jettySize=auto;html=1;noEdgeStyle=1;orthogonal=1;fontSize=12;" parent="1" source="Te6tt9Ck92rcXe0SvWjM-1" target="Te6tt9Ck92rcXe0SvWjM-2" edge="1">
          <mxGeometry relative="1" as="geometry">
            <Array as="points" />
          </mxGeometry>
        </mxCell>
        <mxCell id="Te6tt9Ck92rcXe0SvWjM-5" value="" style="edgeStyle=orthogonalEdgeStyle;rounded=0;orthogonalLoop=1;jettySize=auto;html=1;noEdgeStyle=1;orthogonal=1;fontSize=12;" parent="1" source="Te6tt9Ck92rcXe0SvWjM-1" target="Te6tt9Ck92rcXe0SvWjM-4" edge="1">
          <mxGeometry relative="1" as="geometry">
            <Array as="points" />
          </mxGeometry>
        </mxCell>
        <mxCell id="Te6tt9Ck92rcXe0SvWjM-7" value="" style="edgeStyle=orthogonalEdgeStyle;rounded=0;orthogonalLoop=1;jettySize=auto;html=1;noEdgeStyle=1;orthogonal=1;fontSize=12;" parent="1" source="Te6tt9Ck92rcXe0SvWjM-1" target="Te6tt9Ck92rcXe0SvWjM-6" edge="1">
          <mxGeometry relative="1" as="geometry">
            <Array as="points" />
          </mxGeometry>
        </mxCell>
        <mxCell id="Te6tt9Ck92rcXe0SvWjM-9" value="" style="edgeStyle=orthogonalEdgeStyle;rounded=0;orthogonalLoop=1;jettySize=auto;html=1;noEdgeStyle=1;orthogonal=1;fontSize=12;" parent="1" source="Te6tt9Ck92rcXe0SvWjM-1" target="Te6tt9Ck92rcXe0SvWjM-8" edge="1">
          <mxGeometry relative="1" as="geometry">
            <Array as="points" />
          </mxGeometry>
        </mxCell>
        <mxCell id="Te6tt9Ck92rcXe0SvWjM-1" value="K8s yaml file" style="ellipse;whiteSpace=wrap;html=1;fontStyle=1;fontSize=12;" parent="1" vertex="1">
          <mxGeometry x="574" y="383" width="100" height="30" as="geometry" />
        </mxCell>
        <mxCell id="Te6tt9Ck92rcXe0SvWjM-62" value="" style="edgeStyle=orthogonalEdgeStyle;rounded=0;orthogonalLoop=1;jettySize=auto;html=1;noEdgeStyle=1;fontSize=12;" parent="1" source="Te6tt9Ck92rcXe0SvWjM-2" target="Te6tt9Ck92rcXe0SvWjM-61" edge="1">
          <mxGeometry relative="1" as="geometry">
            <Array as="points" />
          </mxGeometry>
        </mxCell>
        <mxCell id="Te6tt9Ck92rcXe0SvWjM-71" value="" style="edgeStyle=orthogonalEdgeStyle;rounded=0;orthogonalLoop=1;jettySize=auto;html=1;noEdgeStyle=1;fontSize=12;" parent="1" source="Te6tt9Ck92rcXe0SvWjM-2" target="Te6tt9Ck92rcXe0SvWjM-70" edge="1">
          <mxGeometry relative="1" as="geometry">
            <Array as="points" />
          </mxGeometry>
        </mxCell>
        <mxCell id="Te6tt9Ck92rcXe0SvWjM-2" value="apiVersion:" style="ellipse;whiteSpace=wrap;html=1;shadow=0;fontStyle=4;fontSize=12;" parent="1" vertex="1">
          <mxGeometry x="564" y="483" width="80" height="30" as="geometry" />
        </mxCell>
        <mxCell id="Te6tt9Ck92rcXe0SvWjM-64" value="" style="edgeStyle=orthogonalEdgeStyle;rounded=0;orthogonalLoop=1;jettySize=auto;html=1;noEdgeStyle=1;fontSize=12;" parent="1" source="Te6tt9Ck92rcXe0SvWjM-4" target="Te6tt9Ck92rcXe0SvWjM-63" edge="1">
          <mxGeometry relative="1" as="geometry">
            <Array as="points" />
          </mxGeometry>
        </mxCell>
        <mxCell id="Te6tt9Ck92rcXe0SvWjM-76" style="edgeStyle=orthogonalEdgeStyle;rounded=0;orthogonalLoop=1;jettySize=auto;html=1;entryDx=0;entryDy=0;noEdgeStyle=1;fontSize=12;" parent="1" source="Te6tt9Ck92rcXe0SvWjM-4" target="Te6tt9Ck92rcXe0SvWjM-74" edge="1">
          <mxGeometry relative="1" as="geometry">
            <Array as="points" />
          </mxGeometry>
        </mxCell>
        <mxCell id="Te6tt9Ck92rcXe0SvWjM-108" style="edgeStyle=orthogonalEdgeStyle;rounded=0;orthogonalLoop=1;jettySize=auto;html=1;entryDx=0;entryDy=0;noEdgeStyle=1;fontSize=12;" parent="1" source="Te6tt9Ck92rcXe0SvWjM-4" target="Te6tt9Ck92rcXe0SvWjM-107" edge="1">
          <mxGeometry relative="1" as="geometry">
            <Array as="points" />
          </mxGeometry>
        </mxCell>
        <mxCell id="cD0YtMm21OA0cVFLO4rJ-7" style="edgeStyle=orthogonalEdgeStyle;rounded=0;orthogonalLoop=1;jettySize=auto;html=1;exitX=1;exitY=0.5;exitDx=0;exitDy=0;" edge="1" parent="1" source="Te6tt9Ck92rcXe0SvWjM-4" target="cD0YtMm21OA0cVFLO4rJ-5">
          <mxGeometry relative="1" as="geometry" />
        </mxCell>
        <mxCell id="Te6tt9Ck92rcXe0SvWjM-4" value="kind:" style="ellipse;whiteSpace=wrap;html=1;fontStyle=4;fontSize=12;" parent="1" vertex="1">
          <mxGeometry x="694" y="403" width="50" height="30" as="geometry" />
        </mxCell>
        <mxCell id="Te6tt9Ck92rcXe0SvWjM-18" value="" style="edgeStyle=orthogonalEdgeStyle;rounded=0;orthogonalLoop=1;jettySize=auto;html=1;noEdgeStyle=1;orthogonal=1;fontSize=12;" parent="1" source="Te6tt9Ck92rcXe0SvWjM-6" target="Te6tt9Ck92rcXe0SvWjM-17" edge="1">
          <mxGeometry relative="1" as="geometry">
            <Array as="points" />
          </mxGeometry>
        </mxCell>
        <mxCell id="Te6tt9Ck92rcXe0SvWjM-20" value="" style="edgeStyle=orthogonalEdgeStyle;rounded=0;orthogonalLoop=1;jettySize=auto;html=1;noEdgeStyle=1;orthogonal=1;fontSize=12;" parent="1" source="Te6tt9Ck92rcXe0SvWjM-6" target="Te6tt9Ck92rcXe0SvWjM-19" edge="1">
          <mxGeometry relative="1" as="geometry">
            <Array as="points" />
          </mxGeometry>
        </mxCell>
        <mxCell id="Te6tt9Ck92rcXe0SvWjM-6" value="metadata:" style="ellipse;whiteSpace=wrap;html=1;fontStyle=4;fontSize=12;" parent="1" vertex="1">
          <mxGeometry x="574" y="263" width="80" height="30" as="geometry" />
        </mxCell>
        <mxCell id="Te6tt9Ck92rcXe0SvWjM-78" value="" style="edgeStyle=orthogonalEdgeStyle;rounded=0;orthogonalLoop=1;jettySize=auto;html=1;noEdgeStyle=1;fontSize=12;" parent="1" source="Te6tt9Ck92rcXe0SvWjM-8" target="Te6tt9Ck92rcXe0SvWjM-77" edge="1">
          <mxGeometry relative="1" as="geometry">
            <Array as="points" />
          </mxGeometry>
        </mxCell>
        <mxCell id="Te6tt9Ck92rcXe0SvWjM-8" value="spec:" style="ellipse;whiteSpace=wrap;html=1;fontStyle=4;fontSize=12;" parent="1" vertex="1">
          <mxGeometry x="514" y="443" width="50" height="30" as="geometry" />
        </mxCell>
        <mxCell id="Te6tt9Ck92rcXe0SvWjM-100" style="edgeStyle=orthogonalEdgeStyle;rounded=0;orthogonalLoop=1;jettySize=auto;html=1;entryDx=0;entryDy=0;noEdgeStyle=1;fontSize=12;" parent="1" source="Te6tt9Ck92rcXe0SvWjM-17" target="Te6tt9Ck92rcXe0SvWjM-35" edge="1">
          <mxGeometry relative="1" as="geometry">
            <Array as="points" />
          </mxGeometry>
        </mxCell>
        <mxCell id="Te6tt9Ck92rcXe0SvWjM-17" value="name:" style="ellipse;whiteSpace=wrap;html=1;fontSize=12;" parent="1" vertex="1">
          <mxGeometry x="574" y="143" width="60" height="30" as="geometry" />
        </mxCell>
        <mxCell id="Te6tt9Ck92rcXe0SvWjM-22" value="" style="edgeStyle=orthogonalEdgeStyle;rounded=0;orthogonalLoop=1;jettySize=auto;html=1;noEdgeStyle=1;orthogonal=1;fontSize=12;" parent="1" source="Te6tt9Ck92rcXe0SvWjM-19" target="Te6tt9Ck92rcXe0SvWjM-21" edge="1">
          <mxGeometry relative="1" as="geometry">
            <Array as="points" />
          </mxGeometry>
        </mxCell>
        <mxCell id="Te6tt9Ck92rcXe0SvWjM-49" value="" style="edgeStyle=orthogonalEdgeStyle;rounded=0;orthogonalLoop=1;jettySize=auto;html=1;noEdgeStyle=1;fontSize=12;" parent="1" source="Te6tt9Ck92rcXe0SvWjM-19" target="Te6tt9Ck92rcXe0SvWjM-48" edge="1">
          <mxGeometry relative="1" as="geometry">
            <Array as="points" />
          </mxGeometry>
        </mxCell>
        <mxCell id="Te6tt9Ck92rcXe0SvWjM-19" value="labels:" style="ellipse;whiteSpace=wrap;html=1;fontSize=12;" parent="1" vertex="1">
          <mxGeometry x="714" y="193" width="60" height="30" as="geometry" />
        </mxCell>
        <mxCell id="Te6tt9Ck92rcXe0SvWjM-104" style="edgeStyle=orthogonalEdgeStyle;rounded=0;orthogonalLoop=1;jettySize=auto;html=1;entryDx=0;entryDy=0;noEdgeStyle=1;fontSize=12;" parent="1" source="Te6tt9Ck92rcXe0SvWjM-21" target="Te6tt9Ck92rcXe0SvWjM-103" edge="1">
          <mxGeometry relative="1" as="geometry">
            <Array as="points" />
          </mxGeometry>
        </mxCell>
        <mxCell id="Te6tt9Ck92rcXe0SvWjM-21" value="app:" style="ellipse;whiteSpace=wrap;html=1;fontSize=12;" parent="1" vertex="1">
          <mxGeometry x="774" y="113" width="50" height="30" as="geometry" />
        </mxCell>
        <mxCell id="Te6tt9Ck92rcXe0SvWjM-28" value="" style="edgeStyle=orthogonalEdgeStyle;rounded=0;orthogonalLoop=1;jettySize=auto;html=1;noEdgeStyle=1;orthogonal=1;fontSize=12;" parent="1" source="Te6tt9Ck92rcXe0SvWjM-23" target="Te6tt9Ck92rcXe0SvWjM-27" edge="1">
          <mxGeometry relative="1" as="geometry">
            <Array as="points" />
          </mxGeometry>
        </mxCell>
        <mxCell id="Te6tt9Ck92rcXe0SvWjM-23" value="containers:" style="ellipse;whiteSpace=wrap;html=1;fontSize=12;" parent="1" vertex="1">
          <mxGeometry x="644" y="773" width="80" height="30" as="geometry" />
        </mxCell>
        <mxCell id="Te6tt9Ck92rcXe0SvWjM-30" value="" style="edgeStyle=orthogonalEdgeStyle;rounded=0;orthogonalLoop=1;jettySize=auto;html=1;noEdgeStyle=1;orthogonal=1;fontSize=12;" parent="1" source="Te6tt9Ck92rcXe0SvWjM-27" target="Te6tt9Ck92rcXe0SvWjM-29" edge="1">
          <mxGeometry relative="1" as="geometry">
            <Array as="points" />
          </mxGeometry>
        </mxCell>
        <mxCell id="Te6tt9Ck92rcXe0SvWjM-32" value="" style="edgeStyle=orthogonalEdgeStyle;rounded=0;orthogonalLoop=1;jettySize=auto;html=1;noEdgeStyle=1;orthogonal=1;fontSize=12;" parent="1" source="Te6tt9Ck92rcXe0SvWjM-27" target="Te6tt9Ck92rcXe0SvWjM-31" edge="1">
          <mxGeometry relative="1" as="geometry">
            <Array as="points" />
          </mxGeometry>
        </mxCell>
        <mxCell id="Te6tt9Ck92rcXe0SvWjM-54" value="" style="edgeStyle=orthogonalEdgeStyle;rounded=0;orthogonalLoop=1;jettySize=auto;html=1;noEdgeStyle=1;fontSize=12;" parent="1" source="Te6tt9Ck92rcXe0SvWjM-27" target="Te6tt9Ck92rcXe0SvWjM-53" edge="1">
          <mxGeometry relative="1" as="geometry">
            <Array as="points" />
          </mxGeometry>
        </mxCell>
        <mxCell id="Te6tt9Ck92rcXe0SvWjM-27" value="-" style="ellipse;whiteSpace=wrap;html=1;fontSize=12;" parent="1" vertex="1">
          <mxGeometry x="794" y="943" width="30" height="30" as="geometry" />
        </mxCell>
        <mxCell id="Te6tt9Ck92rcXe0SvWjM-42" value="" style="edgeStyle=orthogonalEdgeStyle;rounded=0;orthogonalLoop=1;jettySize=auto;html=1;noEdgeStyle=1;fontSize=12;" parent="1" source="Te6tt9Ck92rcXe0SvWjM-29" target="Te6tt9Ck92rcXe0SvWjM-41" edge="1">
          <mxGeometry relative="1" as="geometry">
            <Array as="points" />
          </mxGeometry>
        </mxCell>
        <mxCell id="Te6tt9Ck92rcXe0SvWjM-29" value="name:" style="ellipse;whiteSpace=wrap;html=1;fontSize=12;" parent="1" vertex="1">
          <mxGeometry x="864" y="923" width="60" height="30" as="geometry" />
        </mxCell>
        <mxCell id="Te6tt9Ck92rcXe0SvWjM-40" value="" style="edgeStyle=orthogonalEdgeStyle;rounded=0;orthogonalLoop=1;jettySize=auto;html=1;noEdgeStyle=1;fontSize=12;" parent="1" source="Te6tt9Ck92rcXe0SvWjM-31" target="Te6tt9Ck92rcXe0SvWjM-39" edge="1">
          <mxGeometry relative="1" as="geometry">
            <Array as="points" />
          </mxGeometry>
        </mxCell>
        <mxCell id="Te6tt9Ck92rcXe0SvWjM-31" value="image:" style="ellipse;whiteSpace=wrap;html=1;fontSize=12;" parent="1" vertex="1">
          <mxGeometry x="864" y="1003" width="60" height="30" as="geometry" />
        </mxCell>
        <mxCell id="Te6tt9Ck92rcXe0SvWjM-35" value="" style="whiteSpace=wrap;html=1;fontSize=12;" parent="1" vertex="1">
          <mxGeometry x="564" y="43" width="50" height="40" as="geometry" />
        </mxCell>
        <mxCell id="Te6tt9Ck92rcXe0SvWjM-39" value="" style="whiteSpace=wrap;html=1;fontSize=12;" parent="1" vertex="1">
          <mxGeometry x="954" y="1033" width="50" height="40" as="geometry" />
        </mxCell>
        <mxCell id="Te6tt9Ck92rcXe0SvWjM-41" value="" style="whiteSpace=wrap;html=1;fontSize=12;" parent="1" vertex="1">
          <mxGeometry x="944" y="883" width="50" height="40" as="geometry" />
        </mxCell>
        <mxCell id="Te6tt9Ck92rcXe0SvWjM-105" style="edgeStyle=orthogonalEdgeStyle;rounded=0;orthogonalLoop=1;jettySize=auto;html=1;noEdgeStyle=1;fontSize=12;" parent="1" source="Te6tt9Ck92rcXe0SvWjM-48" target="Te6tt9Ck92rcXe0SvWjM-102" edge="1">
          <mxGeometry relative="1" as="geometry">
            <Array as="points" />
          </mxGeometry>
        </mxCell>
        <mxCell id="Te6tt9Ck92rcXe0SvWjM-48" value="tier:" style="ellipse;whiteSpace=wrap;html=1;fontSize=12;" parent="1" vertex="1">
          <mxGeometry x="824" y="193" width="40" height="30" as="geometry" />
        </mxCell>
        <mxCell id="Te6tt9Ck92rcXe0SvWjM-56" value="" style="edgeStyle=orthogonalEdgeStyle;rounded=0;orthogonalLoop=1;jettySize=auto;html=1;noEdgeStyle=1;fontSize=12;" parent="1" source="Te6tt9Ck92rcXe0SvWjM-53" target="Te6tt9Ck92rcXe0SvWjM-55" edge="1">
          <mxGeometry relative="1" as="geometry">
            <Array as="points" />
          </mxGeometry>
        </mxCell>
        <mxCell id="Te6tt9Ck92rcXe0SvWjM-53" value="env:" style="ellipse;whiteSpace=wrap;html=1;fontSize=12;" parent="1" vertex="1">
          <mxGeometry x="864" y="1113" width="50" height="30" as="geometry" />
        </mxCell>
        <mxCell id="Te6tt9Ck92rcXe0SvWjM-58" value="" style="edgeStyle=orthogonalEdgeStyle;rounded=0;orthogonalLoop=1;jettySize=auto;html=1;noEdgeStyle=1;fontSize=12;" parent="1" source="Te6tt9Ck92rcXe0SvWjM-55" target="Te6tt9Ck92rcXe0SvWjM-57" edge="1">
          <mxGeometry relative="1" as="geometry">
            <Array as="points" />
          </mxGeometry>
        </mxCell>
        <mxCell id="Te6tt9Ck92rcXe0SvWjM-60" value="" style="edgeStyle=orthogonalEdgeStyle;rounded=0;orthogonalLoop=1;jettySize=auto;html=1;noEdgeStyle=1;fontSize=12;" parent="1" source="Te6tt9Ck92rcXe0SvWjM-55" target="Te6tt9Ck92rcXe0SvWjM-59" edge="1">
          <mxGeometry relative="1" as="geometry">
            <Array as="points" />
          </mxGeometry>
        </mxCell>
        <mxCell id="Te6tt9Ck92rcXe0SvWjM-55" value="-" style="ellipse;whiteSpace=wrap;html=1;fontSize=12;" parent="1" vertex="1">
          <mxGeometry x="964" y="1253" width="30" height="30" as="geometry" />
        </mxCell>
        <mxCell id="Te6tt9Ck92rcXe0SvWjM-66" value="" style="edgeStyle=orthogonalEdgeStyle;rounded=0;orthogonalLoop=1;jettySize=auto;html=1;noEdgeStyle=1;fontSize=12;" parent="1" source="Te6tt9Ck92rcXe0SvWjM-57" target="Te6tt9Ck92rcXe0SvWjM-65" edge="1">
          <mxGeometry relative="1" as="geometry">
            <Array as="points" />
          </mxGeometry>
        </mxCell>
        <mxCell id="Te6tt9Ck92rcXe0SvWjM-57" value="name:" style="ellipse;whiteSpace=wrap;html=1;fontSize=12;" parent="1" vertex="1">
          <mxGeometry x="1034" y="1323" width="60" height="30" as="geometry" />
        </mxCell>
        <mxCell id="Te6tt9Ck92rcXe0SvWjM-69" value="" style="edgeStyle=orthogonalEdgeStyle;rounded=0;orthogonalLoop=1;jettySize=auto;html=1;noEdgeStyle=1;fontSize=12;" parent="1" source="Te6tt9Ck92rcXe0SvWjM-59" target="Te6tt9Ck92rcXe0SvWjM-68" edge="1">
          <mxGeometry relative="1" as="geometry">
            <Array as="points" />
          </mxGeometry>
        </mxCell>
        <mxCell id="Te6tt9Ck92rcXe0SvWjM-59" value="value:" style="ellipse;whiteSpace=wrap;html=1;fontSize=12;" parent="1" vertex="1">
          <mxGeometry x="954" y="1363" width="60" height="30" as="geometry" />
        </mxCell>
        <mxCell id="Te6tt9Ck92rcXe0SvWjM-61" value="v1" style="whiteSpace=wrap;html=1;fontSize=12;" parent="1" vertex="1">
          <mxGeometry x="624" y="563" width="40" height="30" as="geometry" />
        </mxCell>
        <mxCell id="Te6tt9Ck92rcXe0SvWjM-63" value="Pod" style="whiteSpace=wrap;html=1;fontSize=12;" parent="1" vertex="1">
          <mxGeometry x="784" y="423" width="40" height="30" as="geometry" />
        </mxCell>
        <mxCell id="Te6tt9Ck92rcXe0SvWjM-65" value="" style="whiteSpace=wrap;html=1;fontSize=12;" parent="1" vertex="1">
          <mxGeometry x="1114" y="1373" width="50" height="40" as="geometry" />
        </mxCell>
        <mxCell id="Te6tt9Ck92rcXe0SvWjM-68" value="" style="whiteSpace=wrap;html=1;fontSize=12;" parent="1" vertex="1">
          <mxGeometry x="964" y="1453" width="50" height="40" as="geometry" />
        </mxCell>
        <mxCell id="Te6tt9Ck92rcXe0SvWjM-70" value="apps/v1" style="whiteSpace=wrap;html=1;shadow=0;fontStyle=4;fontSize=12;" parent="1" vertex="1">
          <mxGeometry x="484" y="523" width="70" height="30" as="geometry" />
        </mxCell>
        <mxCell id="Te6tt9Ck92rcXe0SvWjM-74" value="ReplicaSet" style="rounded=0;whiteSpace=wrap;html=1;fontSize=12;" parent="1" vertex="1">
          <mxGeometry x="734" y="343" width="80" height="30" as="geometry" />
        </mxCell>
        <mxCell id="Te6tt9Ck92rcXe0SvWjM-80" style="edgeStyle=orthogonalEdgeStyle;rounded=0;orthogonalLoop=1;jettySize=auto;html=1;entryDx=0;entryDy=0;noEdgeStyle=1;fontSize=12;" parent="1" source="Te6tt9Ck92rcXe0SvWjM-77" target="Te6tt9Ck92rcXe0SvWjM-23" edge="1">
          <mxGeometry relative="1" as="geometry">
            <Array as="points" />
          </mxGeometry>
        </mxCell>
        <mxCell id="Te6tt9Ck92rcXe0SvWjM-82" value="" style="edgeStyle=orthogonalEdgeStyle;rounded=0;orthogonalLoop=1;jettySize=auto;html=1;noEdgeStyle=1;strokeColor=#FF0000;fontSize=12;" parent="1" source="Te6tt9Ck92rcXe0SvWjM-77" target="Te6tt9Ck92rcXe0SvWjM-81" edge="1">
          <mxGeometry relative="1" as="geometry">
            <Array as="points" />
          </mxGeometry>
        </mxCell>
        <mxCell id="Te6tt9Ck92rcXe0SvWjM-77" value="kind == pod" style="rhombus;whiteSpace=wrap;html=1;fontStyle=0;fontSize=12;" parent="1" vertex="1">
          <mxGeometry x="514" y="583" width="90" height="30" as="geometry" />
        </mxCell>
        <mxCell id="Te6tt9Ck92rcXe0SvWjM-84" value="" style="edgeStyle=orthogonalEdgeStyle;rounded=0;orthogonalLoop=1;jettySize=auto;html=1;noEdgeStyle=1;fontSize=12;" parent="1" source="Te6tt9Ck92rcXe0SvWjM-81" target="Te6tt9Ck92rcXe0SvWjM-83" edge="1">
          <mxGeometry relative="1" as="geometry">
            <Array as="points" />
          </mxGeometry>
        </mxCell>
        <mxCell id="Te6tt9Ck92rcXe0SvWjM-87" value="" style="edgeStyle=orthogonalEdgeStyle;rounded=0;orthogonalLoop=1;jettySize=auto;html=1;noEdgeStyle=1;fontSize=12;" parent="1" source="Te6tt9Ck92rcXe0SvWjM-81" target="Te6tt9Ck92rcXe0SvWjM-86" edge="1">
          <mxGeometry relative="1" as="geometry">
            <Array as="points" />
          </mxGeometry>
        </mxCell>
        <mxCell id="Te6tt9Ck92rcXe0SvWjM-89" value="" style="edgeStyle=orthogonalEdgeStyle;rounded=0;orthogonalLoop=1;jettySize=auto;html=1;noEdgeStyle=1;fontSize=12;" parent="1" source="Te6tt9Ck92rcXe0SvWjM-81" target="Te6tt9Ck92rcXe0SvWjM-88" edge="1">
          <mxGeometry relative="1" as="geometry">
            <Array as="points" />
          </mxGeometry>
        </mxCell>
        <mxCell id="Te6tt9Ck92rcXe0SvWjM-110" style="edgeStyle=orthogonalEdgeStyle;rounded=0;orthogonalLoop=1;jettySize=auto;html=1;entryDx=0;entryDy=0;noEdgeStyle=1;strokeColor=#FF0000;fontSize=12;" parent="1" source="Te6tt9Ck92rcXe0SvWjM-81" target="Te6tt9Ck92rcXe0SvWjM-109" edge="1">
          <mxGeometry relative="1" as="geometry">
            <Array as="points" />
          </mxGeometry>
        </mxCell>
        <mxCell id="Te6tt9Ck92rcXe0SvWjM-81" value="kind == replicaset" style="rhombus;whiteSpace=wrap;html=1;fontStyle=0;fontSize=12;" parent="1" vertex="1">
          <mxGeometry x="305" y="513" width="120" height="30" as="geometry" />
        </mxCell>
        <mxCell id="Te6tt9Ck92rcXe0SvWjM-91" value="" style="edgeStyle=orthogonalEdgeStyle;rounded=0;orthogonalLoop=1;jettySize=auto;html=1;noEdgeStyle=1;fontSize=12;" parent="1" source="Te6tt9Ck92rcXe0SvWjM-83" target="Te6tt9Ck92rcXe0SvWjM-90" edge="1">
          <mxGeometry relative="1" as="geometry">
            <Array as="points" />
          </mxGeometry>
        </mxCell>
        <mxCell id="Te6tt9Ck92rcXe0SvWjM-83" value="replica:" style="ellipse;whiteSpace=wrap;html=1;fontStyle=0;fontSize=12;" parent="1" vertex="1">
          <mxGeometry x="270" y="300" width="60" height="30" as="geometry" />
        </mxCell>
        <mxCell id="Te6tt9Ck92rcXe0SvWjM-93" value="" style="edgeStyle=orthogonalEdgeStyle;rounded=0;orthogonalLoop=1;jettySize=auto;html=1;noEdgeStyle=1;fontSize=12;" parent="1" source="Te6tt9Ck92rcXe0SvWjM-86" target="Te6tt9Ck92rcXe0SvWjM-92" edge="1">
          <mxGeometry relative="1" as="geometry">
            <Array as="points" />
          </mxGeometry>
        </mxCell>
        <mxCell id="Te6tt9Ck92rcXe0SvWjM-86" value="selector:" style="ellipse;whiteSpace=wrap;html=1;fontStyle=0;fontSize=12;" parent="1" vertex="1">
          <mxGeometry x="174" y="393" width="70" height="30" as="geometry" />
        </mxCell>
        <mxCell id="Te6tt9Ck92rcXe0SvWjM-98" style="edgeStyle=orthogonalEdgeStyle;rounded=0;orthogonalLoop=1;jettySize=auto;html=1;entryX=1;entryY=0.5;entryDx=0;entryDy=0;noEdgeStyle=1;fontSize=12;" parent="1" source="Te6tt9Ck92rcXe0SvWjM-88" target="Te6tt9Ck92rcXe0SvWjM-6" edge="1">
          <mxGeometry relative="1" as="geometry">
            <mxPoint x="640" y="130" as="targetPoint" />
          </mxGeometry>
        </mxCell>
        <mxCell id="Te6tt9Ck92rcXe0SvWjM-99" style="rounded=0;orthogonalLoop=1;jettySize=auto;html=1;entryX=1;entryY=0.5;entryDx=0;entryDy=0;elbow=vertical;noEdgeStyle=1;fontSize=12;" parent="1" source="Te6tt9Ck92rcXe0SvWjM-88" target="Te6tt9Ck92rcXe0SvWjM-8" edge="1">
          <mxGeometry relative="1" as="geometry">
            <mxPoint x="1240" y="100" as="targetPoint" />
          </mxGeometry>
        </mxCell>
        <mxCell id="Te6tt9Ck92rcXe0SvWjM-88" value="template:" style="ellipse;whiteSpace=wrap;html=1;fontStyle=0;fontSize=12;" parent="1" vertex="1">
          <mxGeometry x="474" y="353" width="70" height="30" as="geometry" />
        </mxCell>
        <mxCell id="Te6tt9Ck92rcXe0SvWjM-90" value="" style="whiteSpace=wrap;html=1;fontStyle=0;fontSize=12;" parent="1" vertex="1">
          <mxGeometry x="314" y="213" width="50" height="40" as="geometry" />
        </mxCell>
        <mxCell id="Te6tt9Ck92rcXe0SvWjM-95" value="" style="edgeStyle=orthogonalEdgeStyle;rounded=0;orthogonalLoop=1;jettySize=auto;html=1;noEdgeStyle=1;fontSize=12;" parent="1" source="Te6tt9Ck92rcXe0SvWjM-92" target="Te6tt9Ck92rcXe0SvWjM-94" edge="1">
          <mxGeometry relative="1" as="geometry">
            <Array as="points" />
          </mxGeometry>
        </mxCell>
        <mxCell id="Te6tt9Ck92rcXe0SvWjM-92" value="matchLabels:" style="ellipse;whiteSpace=wrap;html=1;fontStyle=0;fontSize=12;" parent="1" vertex="1">
          <mxGeometry x="164" y="283" width="90" height="30" as="geometry" />
        </mxCell>
        <mxCell id="Te6tt9Ck92rcXe0SvWjM-97" value="" style="edgeStyle=orthogonalEdgeStyle;rounded=0;orthogonalLoop=1;jettySize=auto;html=1;noEdgeStyle=1;fontSize=12;" parent="1" source="Te6tt9Ck92rcXe0SvWjM-94" target="Te6tt9Ck92rcXe0SvWjM-96" edge="1">
          <mxGeometry relative="1" as="geometry">
            <Array as="points" />
          </mxGeometry>
        </mxCell>
        <mxCell id="Te6tt9Ck92rcXe0SvWjM-94" value="app:" style="ellipse;whiteSpace=wrap;html=1;fontStyle=0;fontSize=12;" parent="1" vertex="1">
          <mxGeometry x="94" y="203" width="50" height="30" as="geometry" />
        </mxCell>
        <mxCell id="Te6tt9Ck92rcXe0SvWjM-96" value="" style="whiteSpace=wrap;html=1;fontStyle=0;fontSize=12;" parent="1" vertex="1">
          <mxGeometry x="24" y="123" width="50" height="40" as="geometry" />
        </mxCell>
        <mxCell id="Te6tt9Ck92rcXe0SvWjM-102" value="" style="whiteSpace=wrap;html=1;fontSize=12;" parent="1" vertex="1">
          <mxGeometry x="914" y="193" width="50" height="40" as="geometry" />
        </mxCell>
        <mxCell id="Te6tt9Ck92rcXe0SvWjM-103" value="" style="whiteSpace=wrap;html=1;fontSize=12;" parent="1" vertex="1">
          <mxGeometry x="834" y="23" width="50" height="40" as="geometry" />
        </mxCell>
        <mxCell id="Te6tt9Ck92rcXe0SvWjM-107" value="Deployment" style="whiteSpace=wrap;html=1;fontSize=12;" parent="1" vertex="1">
          <mxGeometry x="704" y="483" width="90" height="30" as="geometry" />
        </mxCell>
        <mxCell id="Te6tt9Ck92rcXe0SvWjM-111" style="edgeStyle=orthogonalEdgeStyle;rounded=0;orthogonalLoop=1;jettySize=auto;html=1;entryX=0.5;entryY=1;entryDx=0;entryDy=0;noEdgeStyle=1;fontSize=12;" parent="1" source="Te6tt9Ck92rcXe0SvWjM-109" target="Te6tt9Ck92rcXe0SvWjM-88" edge="1">
          <mxGeometry relative="1" as="geometry" />
        </mxCell>
        <mxCell id="Te6tt9Ck92rcXe0SvWjM-112" style="edgeStyle=orthogonalEdgeStyle;rounded=0;orthogonalLoop=1;jettySize=auto;html=1;entryX=0.5;entryY=1;entryDx=0;entryDy=0;noEdgeStyle=1;fontSize=12;" parent="1" source="Te6tt9Ck92rcXe0SvWjM-109" target="Te6tt9Ck92rcXe0SvWjM-83" edge="1">
          <mxGeometry relative="1" as="geometry" />
        </mxCell>
        <mxCell id="Te6tt9Ck92rcXe0SvWjM-113" style="edgeStyle=orthogonalEdgeStyle;rounded=0;orthogonalLoop=1;jettySize=auto;html=1;entryX=0.5;entryY=1;entryDx=0;entryDy=0;noEdgeStyle=1;fontSize=12;" parent="1" source="Te6tt9Ck92rcXe0SvWjM-109" target="Te6tt9Ck92rcXe0SvWjM-86" edge="1">
          <mxGeometry relative="1" as="geometry" />
        </mxCell>
        <mxCell id="Te6tt9Ck92rcXe0SvWjM-109" value="kind == deployment" style="rhombus;whiteSpace=wrap;html=1;fontStyle=0;fontSize=12;" parent="1" vertex="1">
          <mxGeometry x="334" y="363" width="130" height="30" as="geometry" />
        </mxCell>
        <mxCell id="cD0YtMm21OA0cVFLO4rJ-2" value="kind == service" style="rhombus;whiteSpace=wrap;html=1;" vertex="1" parent="1">
          <mxGeometry x="394" y="263" width="80" height="80" as="geometry" />
        </mxCell>
        <mxCell id="cD0YtMm21OA0cVFLO4rJ-5" value="Service" style="rounded=0;whiteSpace=wrap;html=1;" vertex="1" parent="1">
          <mxGeometry x="894" y="498" width="120" height="60" as="geometry" />
        </mxCell>
      </root>
    </mxGraphModel>
  </diagram>
</mxfile>
